<mxfile host="app.diagrams.net" modified="2021-03-31T16:03:55.838Z" agent="5.0 (Windows NT 10.0; Win64; x64) AppleWebKit/537.36 (KHTML, like Gecko) Chrome/89.0.4389.90 Safari/537.36" etag="uzQO2xTLkghUk5FiPXHh" version="14.5.3" type="github">
  <diagram id="RAXaa_qyTKvwoBHxl4EI" name="Page-1">
    <mxGraphModel dx="1038" dy="548" grid="1" gridSize="10" guides="1" tooltips="1" connect="1" arrows="1" fold="1" page="1" pageScale="1" pageWidth="827" pageHeight="1169" math="0" shadow="0">
      <root>
        <mxCell id="0" />
        <mxCell id="1" parent="0" />
        <mxCell id="8u4y7HGkXJNniN7mV6PD-2" value="&lt;font style=&quot;font-size: 36px&quot;&gt;User&lt;/font&gt;" style="rounded=1;whiteSpace=wrap;html=1;" vertex="1" parent="1">
          <mxGeometry x="170" y="220" width="120" height="60" as="geometry" />
        </mxCell>
        <mxCell id="8u4y7HGkXJNniN7mV6PD-18" style="edgeStyle=orthogonalEdgeStyle;rounded=0;orthogonalLoop=1;jettySize=auto;html=1;exitX=1;exitY=1;exitDx=0;exitDy=0;entryX=0;entryY=0.25;entryDx=0;entryDy=0;" edge="1" parent="1" source="8u4y7HGkXJNniN7mV6PD-3" target="8u4y7HGkXJNniN7mV6PD-2">
          <mxGeometry relative="1" as="geometry" />
        </mxCell>
        <mxCell id="8u4y7HGkXJNniN7mV6PD-3" value="Id" style="ellipse;whiteSpace=wrap;html=1;" vertex="1" parent="1">
          <mxGeometry x="40" y="95" width="80" height="40" as="geometry" />
        </mxCell>
        <mxCell id="8u4y7HGkXJNniN7mV6PD-14" style="edgeStyle=orthogonalEdgeStyle;rounded=0;orthogonalLoop=1;jettySize=auto;html=1;exitX=0.5;exitY=1;exitDx=0;exitDy=0;entryX=0;entryY=0;entryDx=0;entryDy=0;" edge="1" parent="1" source="8u4y7HGkXJNniN7mV6PD-4" target="8u4y7HGkXJNniN7mV6PD-2">
          <mxGeometry relative="1" as="geometry" />
        </mxCell>
        <mxCell id="8u4y7HGkXJNniN7mV6PD-4" value="Name" style="ellipse;whiteSpace=wrap;html=1;" vertex="1" parent="1">
          <mxGeometry x="130" y="70" width="80" height="40" as="geometry" />
        </mxCell>
        <mxCell id="8u4y7HGkXJNniN7mV6PD-15" style="edgeStyle=orthogonalEdgeStyle;rounded=0;orthogonalLoop=1;jettySize=auto;html=1;exitX=0.5;exitY=1;exitDx=0;exitDy=0;entryX=0.75;entryY=0;entryDx=0;entryDy=0;" edge="1" parent="1" source="8u4y7HGkXJNniN7mV6PD-5" target="8u4y7HGkXJNniN7mV6PD-2">
          <mxGeometry relative="1" as="geometry" />
        </mxCell>
        <mxCell id="8u4y7HGkXJNniN7mV6PD-5" value="Gmail" style="ellipse;whiteSpace=wrap;html=1;" vertex="1" parent="1">
          <mxGeometry x="230" y="70" width="80" height="40" as="geometry" />
        </mxCell>
        <mxCell id="8u4y7HGkXJNniN7mV6PD-16" style="edgeStyle=orthogonalEdgeStyle;rounded=0;orthogonalLoop=1;jettySize=auto;html=1;entryX=0.933;entryY=-0.03;entryDx=0;entryDy=0;entryPerimeter=0;" edge="1" parent="1" source="8u4y7HGkXJNniN7mV6PD-7" target="8u4y7HGkXJNniN7mV6PD-2">
          <mxGeometry relative="1" as="geometry" />
        </mxCell>
        <mxCell id="8u4y7HGkXJNniN7mV6PD-7" value="Password" style="ellipse;whiteSpace=wrap;html=1;" vertex="1" parent="1">
          <mxGeometry x="310" y="90" width="70" height="50" as="geometry" />
        </mxCell>
        <mxCell id="8u4y7HGkXJNniN7mV6PD-17" style="edgeStyle=orthogonalEdgeStyle;rounded=0;orthogonalLoop=1;jettySize=auto;html=1;exitX=0;exitY=1;exitDx=0;exitDy=0;" edge="1" parent="1" source="8u4y7HGkXJNniN7mV6PD-8">
          <mxGeometry relative="1" as="geometry">
            <mxPoint x="290" y="220" as="targetPoint" />
          </mxGeometry>
        </mxCell>
        <mxCell id="8u4y7HGkXJNniN7mV6PD-8" value="Image" style="ellipse;whiteSpace=wrap;html=1;" vertex="1" parent="1">
          <mxGeometry x="380" y="140" width="80" height="50" as="geometry" />
        </mxCell>
        <mxCell id="8u4y7HGkXJNniN7mV6PD-19" style="edgeStyle=orthogonalEdgeStyle;rounded=0;orthogonalLoop=1;jettySize=auto;html=1;exitX=1;exitY=1;exitDx=0;exitDy=0;entryX=0;entryY=0.5;entryDx=0;entryDy=0;" edge="1" parent="1" source="8u4y7HGkXJNniN7mV6PD-9" target="8u4y7HGkXJNniN7mV6PD-2">
          <mxGeometry relative="1" as="geometry" />
        </mxCell>
        <mxCell id="8u4y7HGkXJNniN7mV6PD-9" value="Role" style="ellipse;whiteSpace=wrap;html=1;" vertex="1" parent="1">
          <mxGeometry x="20" y="160" width="70" height="40" as="geometry" />
        </mxCell>
        <mxCell id="8u4y7HGkXJNniN7mV6PD-13" style="edgeStyle=orthogonalEdgeStyle;rounded=0;orthogonalLoop=1;jettySize=auto;html=1;entryX=1;entryY=0.167;entryDx=0;entryDy=0;entryPerimeter=0;" edge="1" parent="1" source="8u4y7HGkXJNniN7mV6PD-10" target="8u4y7HGkXJNniN7mV6PD-2">
          <mxGeometry relative="1" as="geometry">
            <mxPoint x="300" y="230" as="targetPoint" />
          </mxGeometry>
        </mxCell>
        <mxCell id="8u4y7HGkXJNniN7mV6PD-10" value="Description" style="ellipse;whiteSpace=wrap;html=1;" vertex="1" parent="1">
          <mxGeometry x="390" y="210" width="70" height="40" as="geometry" />
        </mxCell>
        <mxCell id="8u4y7HGkXJNniN7mV6PD-20" style="edgeStyle=orthogonalEdgeStyle;rounded=0;orthogonalLoop=1;jettySize=auto;html=1;exitX=1;exitY=1;exitDx=0;exitDy=0;entryX=0.153;entryY=1.037;entryDx=0;entryDy=0;entryPerimeter=0;" edge="1" parent="1" source="8u4y7HGkXJNniN7mV6PD-11" target="8u4y7HGkXJNniN7mV6PD-2">
          <mxGeometry relative="1" as="geometry" />
        </mxCell>
        <mxCell id="8u4y7HGkXJNniN7mV6PD-11" value="Enabled" style="ellipse;whiteSpace=wrap;html=1;" vertex="1" parent="1">
          <mxGeometry x="30" y="220" width="70" height="50" as="geometry" />
        </mxCell>
      </root>
    </mxGraphModel>
  </diagram>
</mxfile>
